<svg viewBox="0 0 100 100" xml:space="preserve" xmlns="http://www.w3.org/2000/svg"><style>.st1{fill:#f28888}.st1,.st2{display:inline}.st3{display:none;fill:#848484}</style><g id="Layer_1"><path d="M40 2c3.308 0 6 2.692 6 6v32c0 3.308-2.692 6-6 6H8c-3.308 0-6-2.692-6-6V8c0-3.308 2.692-6 6-6h32m0-2H8a8 8 0 0 0-8 8v32a8 8 0 0 0 8 8h32a8 8 0 0 0 8-8V8a8 8 0 0 0-8-8zM92 2c3.308 0 6 2.692 6 6v32c0 3.308-2.692 6-6 6H60c-3.308 0-6-2.692-6-6V8c0-3.308 2.692-6 6-6h32m0-2H60a8 8 0 0 0-8 8v32a8 8 0 0 0 8 8h32a8 8 0 0 0 8-8V8a8 8 0 0 0-8-8zM40 54c3.308 0 6 2.692 6 6v32c0 3.308-2.692 6-6 6H8c-3.308 0-6-2.692-6-6V60c0-3.308 2.692-6 6-6h32m0-2H8a8 8 0 0 0-8 8v32a8 8 0 0 0 8 8h32a8 8 0 0 0 8-8V60a8 8 0 0 0-8-8zM92 54c3.308 0 6 2.692 6 6v32c0 3.308-2.692 6-6 6H60c-3.308 0-6-2.692-6-6V60c0-3.308 2.692-6 6-6h32m0-2H60a8 8 0 0 0-8 8v32a8 8 0 0 0 8 8h32a8 8 0 0 0 8-8V60a8 8 0 0 0-8-8z"/></g></svg>